# xmcd
#
# Track frame offsets:
#	150
#	11509
#	23040
#	34960
#	48357
#	58662
#	72060
#	86092
#	100202
#	112435
#	124597
#	139582
#	155642
#	167617
#	182237
#	193872
#	206134
#	220060
#	235495
#	248075
#
# Disc length: 3481
#
# Revision: 4
# Processed by: cddbd v1.5.1PL0 Copyright (c) Steve Scherf et al.
# Submitted via: FreeRIP 2.80 
# Normalized: r3:TSWAP
#
DISCID=240d9714
DTITLE=Various Artist - Country Classics Volume One Honky Tonk Angels
DYEAR=1997
DGENRE=Country
TTITLE0=Kitty Wells - It Wasn't God Who Made Honky Tonk Angels
TTITLE1=Patsy Cline - Walkin' After Midnight
TTITLE2=Skeeter Davis - The End Of The World
TTITLE3=Lynn Anderson - Rose Garden
TTITLE4=Connie Smith - Once A Day
TTITLE5=Lacy J. Dalton - Dream Baby (How Long Must I Dream)
TTITLE6=Barbara Fairchild - Teddy Bear Song
TTITLE7=Billie Jo Spears - Mr. Walker, It's All Over
TTITLE8=Jeanne Pruett - Satin Sheets
TTITLE9=Jody Miller - Queen Of The House
TTITLE10=Jeannie C. Riley - Harper Valley P.T.A.
TTITLE11=Judy Rodman - Girls Ride Horses Too
TTITLE12=Donna Fargo - Funny Face
TTITLE13=Sandy Posey - Put Your Hand In The Hand
TTITLE14=Sammi Smith - Help Me Make It Through The Night
TTITLE15=Susan Raye - L.A. International Airport
TTITLE16=Jeannie Seely - Don't Touch Me
TTITLE17=Melba Montgomery - No Charge
TTITLE18=Wanda Jackson - Crazy
TTITLE19=Margo Smith - Don't Break The Heart That Loves You
EXTD=
EXTT0=
EXTT1=
EXTT2=
EXTT3=
EXTT4=
EXTT5=
EXTT6=
EXTT7=
EXTT8=
EXTT9=
EXTT10=
EXTT11=
EXTT12=
EXTT13=
EXTT14=
EXTT15=
EXTT16=
EXTT17=
EXTT18=
EXTT19=
PLAYORDER=
